<svg width="20" height="20" viewBox="0 0 20 20" fill="none" xmlns="http://www.w3.org/2000/svg">
<path d="M3.44422 0.523327C2.78702 0.778905 2.23124 1.11968 1.67546 1.67546C1.11968 2.22718 0.778905 2.78702 0.523327 3.44016C0.275862 4.07302 0.109533 4.79919 0.0608519 5.86207C0.0121704 6.92495 0 7.26572 0 9.97566C0 12.6856 0.0121704 13.0264 0.0608519 14.0892C0.109533 15.1521 0.279919 15.8783 0.523327 16.5112C0.778905 17.1684 1.11968 17.7241 1.67546 18.2799C2.23124 18.8357 2.78702 19.1765 3.44422 19.432C4.07708 19.6795 4.80325 19.8458 5.86613 19.8945C6.92901 19.9432 7.26978 19.9554 9.97972 19.9554C12.6897 19.9554 13.0304 19.9432 14.0933 19.8945C15.1562 19.8458 15.8824 19.6755 16.5152 19.432C17.1724 19.1765 17.7282 18.8357 18.284 18.2799C18.8398 17.7241 19.1805 17.1684 19.4361 16.5112C19.6836 15.8783 19.8499 15.1521 19.8986 14.0892C19.9473 13.0264 19.9594 12.6856 19.9594 9.97566C19.9594 7.26572 19.9473 6.92495 19.8986 5.86207C19.8499 4.79919 19.6795 4.07302 19.4361 3.44016C19.1805 2.78702 18.8398 2.22718 18.288 1.67546C17.7323 1.11968 17.1765 0.778905 16.5193 0.523327C15.8864 0.275862 15.1602 0.109533 14.0974 0.0608519C13.0345 0.0121704 12.6937 0 9.98377 0C7.27383 0 6.93306 0.0121704 5.87018 0.0608519C4.80325 0.105477 4.07708 0.275862 3.44422 0.523327ZM14.0122 1.85396C14.9858 1.89858 15.5132 2.06085 15.8661 2.19878C16.3327 2.38134 16.6653 2.59635 17.0142 2.94523C17.3631 3.29412 17.5781 3.62678 17.7606 4.09331C17.8986 4.44625 18.0609 4.97363 18.1055 5.94726C18.1542 6.99797 18.1623 7.3144 18.1623 9.97972C18.1623 12.645 18.1501 12.9615 18.1055 14.0122C18.0609 14.9858 17.8986 15.5132 17.7606 15.8661C17.5781 16.3327 17.3631 16.6653 17.0142 17.0142C16.6653 17.3631 16.3327 17.5781 15.8661 17.7606C15.5132 17.8986 14.9858 18.0609 14.0122 18.1055C12.9615 18.1542 12.645 18.1623 9.97972 18.1623C7.3144 18.1623 6.99797 18.1501 5.94726 18.1055C4.97363 18.0609 4.44625 17.8986 4.09331 17.7606C3.62678 17.5781 3.29412 17.3631 2.94523 17.0142C2.59635 16.6653 2.38134 16.3327 2.19878 15.8661C2.06085 15.5132 1.89858 14.9858 1.85396 14.0122C1.80527 12.9615 1.79716 12.645 1.79716 9.97972C1.79716 7.3144 1.80933 6.99797 1.85396 5.94726C1.89858 4.97363 2.06085 4.44625 2.19878 4.09331C2.38134 3.62678 2.59635 3.29412 2.94523 2.94523C3.29412 2.59635 3.62678 2.38134 4.09331 2.19878C4.44625 2.06085 4.97363 1.89858 5.94726 1.85396C6.99797 1.80527 7.3144 1.79716 9.97972 1.79716C12.645 1.79716 12.9615 1.80527 14.0122 1.85396Z" fill="url(#paint0_radial_3_419)"/>
<path d="M4.85596 9.97969C4.85596 12.8113 7.1521 15.1034 9.97969 15.1034C12.8073 15.1034 15.1034 12.8073 15.1034 9.97969C15.1034 7.1521 12.8113 4.85596 9.97969 4.85596C7.14805 4.85596 4.85596 7.14805 4.85596 9.97969ZM13.3063 9.97969C13.3063 11.8174 11.8174 13.3063 9.97969 13.3063C8.14196 13.3063 6.65312 11.8174 6.65312 9.97969C6.65312 8.14196 8.14196 6.65312 9.97969 6.65312C11.8174 6.65312 13.3063 8.14196 13.3063 9.97969Z" fill="url(#paint1_radial_3_419)"/>
<path d="M15.31 5.84981C15.971 5.84981 16.5068 5.314 16.5068 4.65305C16.5068 3.9921 15.971 3.4563 15.31 3.4563C14.6491 3.4563 14.1133 3.9921 14.1133 4.65305C14.1133 5.314 14.6491 5.84981 15.31 5.84981Z" fill="#654C9F"/>
<defs>
<radialGradient id="paint0_radial_3_419" cx="0" cy="0" r="1" gradientUnits="userSpaceOnUse" gradientTransform="translate(1.26431 18.0863) rotate(-3.0007) scale(28.8566 28.8565)">
<stop stop-color="#FED576"/>
<stop offset="0.2634" stop-color="#F47133"/>
<stop offset="0.6091" stop-color="#BC3081"/>
<stop offset="1" stop-color="#4C63D2"/>
</radialGradient>
<radialGradient id="paint1_radial_3_419" cx="0" cy="0" r="1" gradientUnits="userSpaceOnUse" gradientTransform="translate(5.04181 14.1638) scale(14.8182 14.8182)">
<stop stop-color="#FED576"/>
<stop offset="0.2634" stop-color="#F47133"/>
<stop offset="0.6091" stop-color="#BC3081"/>
<stop offset="1" stop-color="#4C63D2"/>
</radialGradient>
</defs>
</svg>
